<?xml version="1.0" encoding="UTF-8" standalone="no"?>
<svg
   xmlns:dc="http://purl.org/dc/elements/1.1/"
   xmlns:cc="http://creativecommons.org/ns#"
   xmlns:rdf="http://www.w3.org/1999/02/22-rdf-syntax-ns#"
   xmlns:svg="http://www.w3.org/2000/svg"
   xmlns="http://www.w3.org/2000/svg"
   xmlns:sodipodi="http://sodipodi.sourceforge.net/DTD/sodipodi-0.dtd"
   xmlns:inkscape="http://www.inkscape.org/namespaces/inkscape"
   width="42.309536mm"
   height="89.839218mm"
   viewBox="0 0 42.309536 89.839218"
   version="1.1"
   id="svg8"
   inkscape:version="1.0.2 (e86c870879, 2021-01-15, custom)"
   sodipodi:docname="drawing.svg">
  <defs
     id="defs2" />
  <sodipodi:namedview
     id="base"
     pagecolor="#ffffff"
     bordercolor="#666666"
     borderopacity="1.0"
     inkscape:pageopacity="0.0"
     inkscape:pageshadow="2"
     inkscape:zoom="1.4"
     inkscape:cx="98.744697"
     inkscape:cy="170.84446"
     inkscape:document-units="mm"
     inkscape:current-layer="layer1"
     inkscape:document-rotation="0"
     showgrid="false"
     inkscape:window-width="1920"
     inkscape:window-height="1032"
     inkscape:window-x="0"
     inkscape:window-y="814"
     inkscape:window-maximized="1" />
  <metadata
     id="metadata5">
    <rdf:RDF>
      <cc:Work
         rdf:about="">
        <dc:format>image/svg+xml</dc:format>
        <dc:type
           rdf:resource="http://purl.org/dc/dcmitype/StillImage" />
        <dc:title></dc:title>
      </cc:Work>
    </rdf:RDF>
  </metadata>
  <g
     inkscape:label="Layer 1"
     inkscape:groupmode="layer"
     id="layer1"
     transform="translate(-13.44978,-2.3300717)">
    <path
       style="fill:#000000;stroke:#000000;stroke-width:0.264583px;stroke-linecap:butt;stroke-linejoin:miter;stroke-opacity:1"
       d="m 30.899553,13.859914 c -0.02205,0.52444 2.45245,3.003481 3.420685,3.118304 2.437949,-0.869346 2.11564,-1.287011 3.16582,-1.494339 1.095015,-0.21618 2.318067,0.35776 3.746031,-0.267272 6.702114,-2.933572 6.475524,-10.278801 6.261706,-11.5082422 -4.19613,-3.04687317 -9.140618,0.2138164 -10.209696,2.0847031 3.741774,2.8063297 -1.470265,8.3313351 -4.222859,4.5970351 -1.042069,1.370549 -0.659232,1.816165 -2.161687,3.469811 z"
       id="path861"
       sodipodi:nodetypes="ccsscccc" />
    <ellipse
       style="fill:none;stroke:#000000;stroke-width:1.1827;stroke-linecap:round;stroke-linejoin:round;stroke-miterlimit:4;stroke-dasharray:none"
       id="path863"
       ry="2.0874813"
       rx="1.6065072"
       cy="-11.168083"
       cx="34.323551"
       transform="matrix(0.85488753,0.51881337,-0.55970611,0.82869118,0,0)" />
    <path
       style="fill:#000000;stroke:#000000;stroke-width:0.264583px;stroke-linecap:butt;stroke-linejoin:miter;stroke-opacity:1"
       d="m 30.28606,14.290905 c 0.445142,0.854263 2.08977,2.554719 3.332075,3.130185 0.372778,0.161611 0.0088,1.140376 -0.637778,0.681503 l -0.815695,1.026349 c 0,0 -1.264633,-1.144015 -1.32133,-1.06842 -0.0567,0.0756 -0.943585,1.405621 -0.943585,1.405621 0.81618,0.620716 1.746306,1.553132 1.609294,1.84699 -0.848574,1.41367 -1.749825,2.85492 -2.630573,4.250889 -0.798105,0.420064 -6.26924,-2.913082 -6.056075,-3.96815 l 2.847654,-4.271939 c 0.204173,-0.217333 1.252821,0.115615 2.135566,0.661458 l 1.976546,-2.719877 c -0.666742,-0.676154 0.09327,-1.2233 0.503901,-0.974609 z"
       id="path865"
       sodipodi:nodetypes="ccccscccccccc" />
    <path
       style="fill:#000000;stroke:#000000;stroke-width:0.264583px;stroke-linecap:butt;stroke-linejoin:miter;stroke-opacity:1"
       d="m 33.280805,24.790514 c 0.011,-3.692737 2.94255,-4.995926 5.159375,-6.883892 0,0 -0.498765,-0.76166 -0.453573,-1.72952 4.372521,1.142716 11.195623,-3.859624 10.160289,-12.4426879 0.08421,-0.3724238 2.010547,0.3382769 2.010547,0.3382769 1.079352,-1.2706861 2.154909,-1.5111346 3.77976,-0.9449346 -1.417856,1.2721135 -2.484444,2.4477854 -2.797024,4.7246966 0.04625,0.3762578 0.434049,0.4792721 0.982737,0.453576 -0.504718,1.0545732 -1.140504,1.4538186 -1.738688,2.041069 -1.216253,4.692486 -3.032651,8.384735 -4.838097,12.095238 0,0 2.41636,-0.103634 5.382077,4.658799 2.995869,4.81085 -0.56755,1.069074 -0.58799,1.069074 0,0 3.046397,9.239354 3.821953,14.352375 0.617798,4.072965 -1.082189,-2.534135 -1.849857,-1.766666 0,0 4.415638,17.909742 2.59821,22.720594 -1.817431,4.810853 2.899878,21.782465 -2.12479,13.764381 -3.260687,-3.26069 2.833056,13.350115 2.833056,13.350115 0,0 -0.374176,1.069071 -3.15378,-3.421053 -1.015626,-3.046871 0.534538,4.917756 0.534538,4.917756 0,0 -2.512332,-3.207234 -3.634866,-7.911174 -3.498779,-0.860163 -5.671146,-15.705381 -5.024667,-16.99834 -1.493334,-1.787812 -1.160065,-0.254523 -1.162622,0.668173 -1.008645,-1.172371 -1.557024,-2.498167 -1.710523,-3.955594 -0.16187,0.260026 -0.445777,1.242035 -0.748355,2.031251 0.15554,-2.423242 -1.379214,-4.846484 -2.245067,-7.269726 -1.793153,-1.743953 -1.032502,0.02356 -0.641445,1.28289 0,0 -7.483549,-6.735199 -10.37006,-12.615124 -3.939921,-1.504604 -4.101917,-2.951918 -6.721828,-3.434408 -1.648474,0.729907 -0.350307,2.061166 -2.88651,3.741775 -0.676372,1.543815 -1.748798,1.21919 -2.565787,0.641445 0.504195,0.208989 0.88387,0.251954 0.96217,-0.106908 1.762916,-1.339417 1.38771,-2.349521 1.897613,-3.554685 l 1.398186,-2.155713 c -0.915366,-1.666544 -2.021026,-1.77991 -2.67918,-3.55279 -0.479014,-0.299373 -1.140349,-0.124713 -1.151158,-1.641413 -0.825737,-0.834032 -1.500945,-0.08752 -2.126299,1.182472 -0.132208,-3.129637 1.640045,-2.587039 2.767746,-1.735347 0.77888,-0.38329 0.822945,0.735557 1.23861,1.169496 1.117574,-1.089123 1.958634,-0.515187 2.572272,2.22561 -0.02105,0.989112 0.629335,1.635031 1.641415,1.981592 1.346548,1.174125 2.838956,1.618936 4.276314,2.339006 0.851343,-0.223295 1.853006,-0.764612 2.201891,-1.289384 0.589278,-1.145971 0.08034,-1.664387 0.04317,-2.45239 0.135852,-1.290926 0.295353,-2.553474 0.427632,-3.848687 -0.956174,-0.392838 -1.156942,-0.870842 -1.508568,-1.565822 -0.873181,-0.484037 -2.235747,0.292492 -2.019388,-0.999959 -1.290557,-0.771341 -2.084873,-0.05396 -2.672696,1.28289 0.135246,-2.221289 1.591174,-2.63533 3.634864,-2.245064 0.34542,0.172767 0.597384,0.09632 0.641447,-0.534537 -1.003087,-0.483591 -1.169783,-1.134463 -1.175987,-1.817434 -1.037731,-1.002406 -2.05561,-1.488679 -2.993418,0.106905 0.735492,-2.6544 2.567077,-1.62195 4.383218,-0.641445 -0.03699,2.064818 0.986645,2.96294 1.924346,3.95559 0.717934,-3.432893 1.889147,-6.714692 4.308785,-9.580348 z"
       id="path867"
       sodipodi:nodetypes="ccccccccccscscscccccccccccccccccccccccccccccccccccccccc" />
  </g>
</svg>
