  0
SECTION
  2
BLOCKS
  0
ENDSEC
  0
SECTION
  2
ENTITIES
  0
LINE
  8
0
 10
7.32198
 20
-14.994
 11
9.22141
 21
-14.9759
  0
LINE
  8
0
 10
9.22141
 20
-14.9759
 11
10.5488
 21
-14.9457
  0
LINE
  8
0
 10
10.5488
 20
-14.9457
 11
11.5996
 21
-14.9033
  0
LINE
  8
0
 10
11.5996
 20
-14.9033
 11
12.4802
 21
-14.8486
  0
LINE
  8
0
 10
12.4802
 20
-14.8486
 11
13.2425
 21
-14.7815
  0
LINE
  8
0
 10
13.2425
 20
-14.7815
 11
13.9164
 21
-14.7018
  0
LINE
  8
0
 10
13.9164
 20
-14.7018
 11
14.5203
 21
-14.6093
  0
LINE
  8
0
 10
14.5203
 20
-14.6093
 11
15.067
 21
-14.5037
  0
LINE
  8
0
 10
15.067
 20
-14.5037
 11
15.5653
 21
-14.3847
  0
LINE
  8
0
 10
15.5653
 20
-14.3847
 11
16.0219
 21
-14.252
  0
LINE
  8
0
 10
16.0219
 20
-14.252
 11
16.4415
 21
-14.105
  0
LINE
  8
0
 10
16.4415
 20
-14.105
 11
16.8282
 21
-13.9433
  0
LINE
  8
0
 10
16.8282
 20
-13.9433
 11
17.185
 21
-13.7664
  0
LINE
  8
0
 10
17.185
 20
-13.7664
 11
17.5142
 21
-13.5734
  0
LINE
  8
0
 10
17.5142
 20
-13.5734
 11
17.818
 21
-13.3635
  0
LINE
  8
0
 10
17.818
 20
-13.3635
 11
18.0978
 21
-13.1357
  0
LINE
  8
0
 10
18.0978
 20
-13.1357
 11
18.3552
 21
-12.8887
  0
LINE
  8
0
 10
18.3552
 20
-12.8887
 11
18.5911
 21
-12.6212
  0
LINE
  8
0
 10
18.5911
 20
-12.6212
 11
18.8067
 21
-12.3312
  0
LINE
  8
0
 10
18.8067
 20
-12.3312
 11
19.0026
 21
-12.0164
  0
LINE
  8
0
 10
19.0026
 20
-12.0164
 11
19.1796
 21
-11.674
  0
LINE
  8
0
 10
19.1796
 20
-11.674
 11
19.3383
 21
-11.3003
  0
LINE
  8
0
 10
19.3383
 20
-11.3003
 11
19.4791
 21
-10.8902
  0
LINE
  8
0
 10
19.4791
 20
-10.8902
 11
19.6024
 21
-10.4373
  0
LINE
  8
0
 10
19.6024
 20
-10.4373
 11
19.7087
 21
-9.9319
  0
LINE
  8
0
 10
19.7087
 20
-9.9319
 11
19.7982
 21
-9.36012
  0
LINE
  8
0
 10
19.7982
 20
-9.36012
 11
19.8711
 21
-8.69968
  0
LINE
  8
0
 10
19.8711
 20
-8.69968
 11
19.9276
 21
-7.91161
  0
LINE
  8
0
 10
19.9276
 20
-7.91161
 11
19.9678
 21
-6.91605
  0
LINE
  8
0
 10
19.9678
 20
-6.91605
 11
19.992
 21
-5.49147
  0
LINE
  8
0
 10
19.992
 20
-5.49147
 11
19.9921
 21
-5.375
  0
LINE
  8
0
 10
19.9921
 20
-5.375
 11
19
 21
-5.375
  0
LINE
  8
0
 10
19
 20
-5.375
 11
18.9755
 21
-5.37439
  0
LINE
  8
0
 10
18.9755
 20
-5.37439
 11
18.951
 21
-5.37259
  0
LINE
  8
0
 10
18.951
 20
-5.37259
 11
18.9266
 21
-5.36958
  0
LINE
  8
0
 10
18.9266
 20
-5.36958
 11
18.9025
 21
-5.36539
  0
LINE
  8
0
 10
18.9025
 20
-5.36539
 11
18.8785
 21
-5.36
  0
LINE
  8
0
 10
18.8785
 20
-5.36
 11
18.8549
 21
-5.35347
  0
LINE
  8
0
 10
18.8549
 20
-5.35347
 11
18.8316
 21
-5.34576
  0
LINE
  8
0
 10
18.8316
 20
-5.34576
 11
18.8087
 21
-5.33693
  0
LINE
  8
0
 10
18.8087
 20
-5.33693
 11
18.7862
 21
-5.32698
  0
LINE
  8
0
 10
18.7862
 20
-5.32698
 11
18.7643
 21
-5.31595
  0
LINE
  8
0
 10
18.7643
 20
-5.31595
 11
18.743
 21
-5.30386
  0
LINE
  8
0
 10
18.743
 20
-5.30386
 11
18.7222
 21
-5.29073
  0
LINE
  8
0
 10
18.7222
 20
-5.29073
 11
18.7022
 21
-5.2766
  0
LINE
  8
0
 10
18.7022
 20
-5.2766
 11
18.6828
 21
-5.26151
  0
LINE
  8
0
 10
18.6828
 20
-5.26151
 11
18.6642
 21
-5.24547
  0
LINE
  8
0
 10
18.6642
 20
-5.24547
 11
18.6465
 21
-5.22855
  0
LINE
  8
0
 10
18.6465
 20
-5.22855
 11
18.6295
 21
-5.21077
  0
LINE
  8
0
 10
18.6295
 20
-5.21077
 11
18.6135
 21
-5.19218
  0
LINE
  8
0
 10
18.6135
 20
-5.19218
 11
18.5984
 21
-5.17284
  0
LINE
  8
0
 10
18.5984
 20
-5.17284
 11
18.5843
 21
-5.15277
  0
LINE
  8
0
 10
18.5843
 20
-5.15277
 11
18.5711
 21
-5.13205
  0
LINE
  8
0
 10
18.5711
 20
-5.13205
 11
18.5591
 21
-5.11069
  0
LINE
  8
0
 10
18.5591
 20
-5.11069
 11
18.548
 21
-5.08878
  0
LINE
  8
0
 10
18.548
 20
-5.08878
 11
18.5381
 21
-5.06633
  0
LINE
  8
0
 10
18.5381
 20
-5.06633
 11
18.5292
 21
-5.04344
  0
LINE
  8
0
 10
18.5292
 20
-5.04344
 11
18.5215
 21
-5.02014
  0
LINE
  8
0
 10
18.5215
 20
-5.02014
 11
18.515
 21
-4.99648
  0
LINE
  8
0
 10
18.515
 20
-4.99648
 11
18.5096
 21
-4.97253
  0
LINE
  8
0
 10
18.5096
 20
-4.97253
 11
18.5054
 21
-4.94836
  0
LINE
  8
0
 10
18.5054
 20
-4.94836
 11
18.5024
 21
-4.924
  0
LINE
  8
0
 10
18.5024
 20
-4.924
 11
18.5006
 21
-4.89952
  0
LINE
  8
0
 10
18.5006
 20
-4.89952
 11
18.5
 21
-4.875
  0
LINE
  8
0
 10
18.5
 20
-4.875
 11
18.5
 21
4.875
  0
LINE
  8
0
 10
18.5
 20
4.875
 11
18.5006
 21
4.89952
  0
LINE
  8
0
 10
18.5006
 20
4.89952
 11
18.5024
 21
4.924
  0
LINE
  8
0
 10
18.5024
 20
4.924
 11
18.5054
 21
4.94836
  0
LINE
  8
0
 10
18.5054
 20
4.94836
 11
18.5096
 21
4.97253
  0
LINE
  8
0
 10
18.5096
 20
4.97253
 11
18.515
 21
4.99648
  0
LINE
  8
0
 10
18.515
 20
4.99648
 11
18.5215
 21
5.02014
  0
LINE
  8
0
 10
18.5215
 20
5.02014
 11
18.5292
 21
5.04344
  0
LINE
  8
0
 10
18.5292
 20
5.04344
 11
18.5381
 21
5.06633
  0
LINE
  8
0
 10
18.5381
 20
5.06633
 11
18.548
 21
5.08878
  0
LINE
  8
0
 10
18.548
 20
5.08878
 11
18.5591
 21
5.11069
  0
LINE
  8
0
 10
18.5591
 20
5.11069
 11
18.5711
 21
5.13205
  0
LINE
  8
0
 10
18.5711
 20
5.13205
 11
18.5843
 21
5.15277
  0
LINE
  8
0
 10
18.5843
 20
5.15277
 11
18.5984
 21
5.17284
  0
LINE
  8
0
 10
18.5984
 20
5.17284
 11
18.6135
 21
5.19218
  0
LINE
  8
0
 10
18.6135
 20
5.19218
 11
18.6295
 21
5.21077
  0
LINE
  8
0
 10
18.6295
 20
5.21077
 11
18.6465
 21
5.22855
  0
LINE
  8
0
 10
18.6465
 20
5.22855
 11
18.6642
 21
5.24547
  0
LINE
  8
0
 10
18.6642
 20
5.24547
 11
18.6828
 21
5.26151
  0
LINE
  8
0
 10
18.6828
 20
5.26151
 11
18.7022
 21
5.2766
  0
LINE
  8
0
 10
18.7022
 20
5.2766
 11
18.7222
 21
5.29073
  0
LINE
  8
0
 10
18.7222
 20
5.29073
 11
18.743
 21
5.30386
  0
LINE
  8
0
 10
18.743
 20
5.30386
 11
18.7643
 21
5.31595
  0
LINE
  8
0
 10
18.7643
 20
5.31595
 11
18.7862
 21
5.32698
  0
LINE
  8
0
 10
18.7862
 20
5.32698
 11
18.8087
 21
5.33693
  0
LINE
  8
0
 10
18.8087
 20
5.33693
 11
18.8316
 21
5.34576
  0
LINE
  8
0
 10
18.8316
 20
5.34576
 11
18.8549
 21
5.35347
  0
LINE
  8
0
 10
18.8549
 20
5.35347
 11
18.8785
 21
5.36
  0
LINE
  8
0
 10
18.8785
 20
5.36
 11
18.9025
 21
5.36539
  0
LINE
  8
0
 10
18.9025
 20
5.36539
 11
18.9266
 21
5.36958
  0
LINE
  8
0
 10
18.9266
 20
5.36958
 11
18.951
 21
5.37259
  0
LINE
  8
0
 10
18.951
 20
5.37259
 11
18.9755
 21
5.37439
  0
LINE
  8
0
 10
18.9755
 20
5.37439
 11
19
 21
5.375
  0
LINE
  8
0
 10
19
 20
5.375
 11
19.9921
 21
5.375
  0
LINE
  8
0
 10
19.9921
 20
5.375
 11
19.992
 21
5.49147
  0
LINE
  8
0
 10
19.992
 20
5.49147
 11
19.9678
 21
6.91605
  0
LINE
  8
0
 10
19.9678
 20
6.91605
 11
19.9276
 21
7.91161
  0
LINE
  8
0
 10
19.9276
 20
7.91161
 11
19.8711
 21
8.69968
  0
LINE
  8
0
 10
19.8711
 20
8.69968
 11
19.7982
 21
9.36012
  0
LINE
  8
0
 10
19.7982
 20
9.36012
 11
19.7087
 21
9.9319
  0
LINE
  8
0
 10
19.7087
 20
9.9319
 11
19.6024
 21
10.4373
  0
LINE
  8
0
 10
19.6024
 20
10.4373
 11
19.4791
 21
10.8902
  0
LINE
  8
0
 10
19.4791
 20
10.8902
 11
19.3383
 21
11.3003
  0
LINE
  8
0
 10
19.3383
 20
11.3003
 11
19.1796
 21
11.674
  0
LINE
  8
0
 10
19.1796
 20
11.674
 11
19.0026
 21
12.0164
  0
LINE
  8
0
 10
19.0026
 20
12.0164
 11
18.8067
 21
12.3312
  0
LINE
  8
0
 10
18.8067
 20
12.3312
 11
18.5911
 21
12.6212
  0
LINE
  8
0
 10
18.5911
 20
12.6212
 11
18.3552
 21
12.8887
  0
LINE
  8
0
 10
18.3552
 20
12.8887
 11
18.0978
 21
13.1357
  0
LINE
  8
0
 10
18.0978
 20
13.1357
 11
17.818
 21
13.3635
  0
LINE
  8
0
 10
17.818
 20
13.3635
 11
17.5142
 21
13.5734
  0
LINE
  8
0
 10
17.5142
 20
13.5734
 11
17.185
 21
13.7664
  0
LINE
  8
0
 10
17.185
 20
13.7664
 11
16.8282
 21
13.9433
  0
LINE
  8
0
 10
16.8282
 20
13.9433
 11
16.4415
 21
14.105
  0
LINE
  8
0
 10
16.4415
 20
14.105
 11
16.0219
 21
14.252
  0
LINE
  8
0
 10
16.0219
 20
14.252
 11
15.5653
 21
14.3847
  0
LINE
  8
0
 10
15.5653
 20
14.3847
 11
15.067
 21
14.5037
  0
LINE
  8
0
 10
15.067
 20
14.5037
 11
14.5203
 21
14.6093
  0
LINE
  8
0
 10
14.5203
 20
14.6093
 11
13.9164
 21
14.7018
  0
LINE
  8
0
 10
13.9164
 20
14.7018
 11
13.2425
 21
14.7815
  0
LINE
  8
0
 10
13.2425
 20
14.7815
 11
12.4802
 21
14.8486
  0
LINE
  8
0
 10
12.4802
 20
14.8486
 11
11.5996
 21
14.9033
  0
LINE
  8
0
 10
11.5996
 20
14.9033
 11
10.5488
 21
14.9457
  0
LINE
  8
0
 10
10.5488
 20
14.9457
 11
9.22141
 21
14.9759
  0
LINE
  8
0
 10
9.22141
 20
14.9759
 11
7.32198
 21
14.994
  0
LINE
  8
0
 10
7.32198
 20
14.994
 11
0
 21
15
  0
LINE
  8
0
 10
0
 20
15
 11
-7.32198
 21
14.994
  0
LINE
  8
0
 10
-7.32198
 20
14.994
 11
-9.22141
 21
14.9759
  0
LINE
  8
0
 10
-9.22141
 20
14.9759
 11
-10.5488
 21
14.9457
  0
LINE
  8
0
 10
-10.5488
 20
14.9457
 11
-11.5996
 21
14.9033
  0
LINE
  8
0
 10
-11.5996
 20
14.9033
 11
-12.4802
 21
14.8486
  0
LINE
  8
0
 10
-12.4802
 20
14.8486
 11
-13.2425
 21
14.7815
  0
LINE
  8
0
 10
-13.2425
 20
14.7815
 11
-13.9164
 21
14.7018
  0
LINE
  8
0
 10
-13.9164
 20
14.7018
 11
-14.5203
 21
14.6093
  0
LINE
  8
0
 10
-14.5203
 20
14.6093
 11
-15.067
 21
14.5037
  0
LINE
  8
0
 10
-15.067
 20
14.5037
 11
-15.5653
 21
14.3847
  0
LINE
  8
0
 10
-15.5653
 20
14.3847
 11
-16.0219
 21
14.252
  0
LINE
  8
0
 10
-16.0219
 20
14.252
 11
-16.4415
 21
14.105
  0
LINE
  8
0
 10
-16.4415
 20
14.105
 11
-16.8282
 21
13.9433
  0
LINE
  8
0
 10
-16.8282
 20
13.9433
 11
-17.185
 21
13.7664
  0
LINE
  8
0
 10
-17.185
 20
13.7664
 11
-17.5142
 21
13.5734
  0
LINE
  8
0
 10
-17.5142
 20
13.5734
 11
-17.818
 21
13.3635
  0
LINE
  8
0
 10
-17.818
 20
13.3635
 11
-18.0978
 21
13.1357
  0
LINE
  8
0
 10
-18.0978
 20
13.1357
 11
-18.3552
 21
12.8887
  0
LINE
  8
0
 10
-18.3552
 20
12.8887
 11
-18.5911
 21
12.6212
  0
LINE
  8
0
 10
-18.5911
 20
12.6212
 11
-18.8067
 21
12.3312
  0
LINE
  8
0
 10
-18.8067
 20
12.3312
 11
-19.0026
 21
12.0164
  0
LINE
  8
0
 10
-19.0026
 20
12.0164
 11
-19.1796
 21
11.674
  0
LINE
  8
0
 10
-19.1796
 20
11.674
 11
-19.3383
 21
11.3003
  0
LINE
  8
0
 10
-19.3383
 20
11.3003
 11
-19.4791
 21
10.8902
  0
LINE
  8
0
 10
-19.4791
 20
10.8902
 11
-19.6024
 21
10.4373
  0
LINE
  8
0
 10
-19.6024
 20
10.4373
 11
-19.7087
 21
9.9319
  0
LINE
  8
0
 10
-19.7087
 20
9.9319
 11
-19.7982
 21
9.36012
  0
LINE
  8
0
 10
-19.7982
 20
9.36012
 11
-19.8711
 21
8.69968
  0
LINE
  8
0
 10
-19.8711
 20
8.69968
 11
-19.9276
 21
7.91161
  0
LINE
  8
0
 10
-19.9276
 20
7.91161
 11
-19.9678
 21
6.91605
  0
LINE
  8
0
 10
-19.9678
 20
6.91605
 11
-19.992
 21
5.49147
  0
LINE
  8
0
 10
-19.992
 20
5.49147
 11
-20
 21
0
  0
LINE
  8
0
 10
-20
 20
0
 11
-19.992
 21
-5.49147
  0
LINE
  8
0
 10
-19.992
 20
-5.49147
 11
-19.9678
 21
-6.91605
  0
LINE
  8
0
 10
-19.9678
 20
-6.91605
 11
-19.9276
 21
-7.91161
  0
LINE
  8
0
 10
-19.9276
 20
-7.91161
 11
-19.8711
 21
-8.69968
  0
LINE
  8
0
 10
-19.8711
 20
-8.69968
 11
-19.7982
 21
-9.36012
  0
LINE
  8
0
 10
-19.7982
 20
-9.36012
 11
-19.7087
 21
-9.9319
  0
LINE
  8
0
 10
-19.7087
 20
-9.9319
 11
-19.6024
 21
-10.4373
  0
LINE
  8
0
 10
-19.6024
 20
-10.4373
 11
-19.4791
 21
-10.8902
  0
LINE
  8
0
 10
-19.4791
 20
-10.8902
 11
-19.3383
 21
-11.3003
  0
LINE
  8
0
 10
-19.3383
 20
-11.3003
 11
-19.1796
 21
-11.674
  0
LINE
  8
0
 10
-19.1796
 20
-11.674
 11
-19.0026
 21
-12.0164
  0
LINE
  8
0
 10
-19.0026
 20
-12.0164
 11
-18.8067
 21
-12.3312
  0
LINE
  8
0
 10
-18.8067
 20
-12.3312
 11
-18.5911
 21
-12.6212
  0
LINE
  8
0
 10
-18.5911
 20
-12.6212
 11
-18.3552
 21
-12.8887
  0
LINE
  8
0
 10
-18.3552
 20
-12.8887
 11
-18.0978
 21
-13.1357
  0
LINE
  8
0
 10
-18.0978
 20
-13.1357
 11
-17.818
 21
-13.3635
  0
LINE
  8
0
 10
-17.818
 20
-13.3635
 11
-17.5142
 21
-13.5734
  0
LINE
  8
0
 10
-17.5142
 20
-13.5734
 11
-17.185
 21
-13.7664
  0
LINE
  8
0
 10
-17.185
 20
-13.7664
 11
-16.8282
 21
-13.9433
  0
LINE
  8
0
 10
-16.8282
 20
-13.9433
 11
-16.4415
 21
-14.105
  0
LINE
  8
0
 10
-16.4415
 20
-14.105
 11
-16.0219
 21
-14.252
  0
LINE
  8
0
 10
-16.0219
 20
-14.252
 11
-15.5653
 21
-14.3847
  0
LINE
  8
0
 10
-15.5653
 20
-14.3847
 11
-15.067
 21
-14.5037
  0
LINE
  8
0
 10
-15.067
 20
-14.5037
 11
-14.5203
 21
-14.6093
  0
LINE
  8
0
 10
-14.5203
 20
-14.6093
 11
-13.9164
 21
-14.7018
  0
LINE
  8
0
 10
-13.9164
 20
-14.7018
 11
-13.2425
 21
-14.7815
  0
LINE
  8
0
 10
-13.2425
 20
-14.7815
 11
-12.4802
 21
-14.8486
  0
LINE
  8
0
 10
-12.4802
 20
-14.8486
 11
-11.5996
 21
-14.9033
  0
LINE
  8
0
 10
-11.5996
 20
-14.9033
 11
-10.5488
 21
-14.9457
  0
LINE
  8
0
 10
-10.5488
 20
-14.9457
 11
-9.22141
 21
-14.9759
  0
LINE
  8
0
 10
-9.22141
 20
-14.9759
 11
-7.32198
 21
-14.994
  0
LINE
  8
0
 10
-7.32198
 20
-14.994
 11
0
 21
-15
  0
LINE
  8
0
 10
0
 20
-15
 11
7.32198
 21
-14.994
  0
ENDSEC
  0
SECTION
  2
OBJECTS
  0
DICTIONARY
  0
ENDSEC
  0
EOF
